<?xml version="1.0" standalone="no"?>
<!DOCTYPE svg PUBLIC "-//W3C//DTD SVG 20010904//EN"
 "http://www.w3.org/TR/2001/REC-SVG-20010904/DTD/svg10.dtd">
<svg version="1.0" xmlns="http://www.w3.org/2000/svg"
 width="512.000000pt" height="512.000000pt" viewBox="0 0 512.000000 512.000000"
 preserveAspectRatio="xMidYMid meet">

<g transform="translate(0.000000,512.000000) scale(0.100000,-0.100000)"
fill="#000000" stroke="none">
<path d="M1057 3912 l-497 -497 500 -500 500 -500 147 148 148 147 -245 245
-245 245 1238 0 1237 0 0 210 0 210 -1235 0 c-679 0 -1235 3 -1235 7 0 5 108
116 240 248 l240 240 -148 148 -147 147 -498 -498z"/>
<path d="M3410 2555 l-145 -145 245 -245 245 -245 -1238 0 -1237 0 0 -210 0
-210 1235 0 c679 0 1235 -3 1235 -8 0 -4 -108 -115 -240 -247 l-240 -240 147
-147 148 -148 497 497 498 498 -497 497 c-274 274 -500 498 -503 498 -3 0 -70
-65 -150 -145z"/>
</g>
</svg>
